<?xml version="1.0" standalone="no"?>
<!DOCTYPE svg PUBLIC "-//W3C//DTD SVG 20010904//EN"
 "http://www.w3.org/TR/2001/REC-SVG-20010904/DTD/svg10.dtd">
<svg version="1.0" xmlns="http://www.w3.org/2000/svg"
 width="300.000000pt" height="200.000000pt" viewBox="0 0 300.000000 200.000000"
 preserveAspectRatio="xMidYMid meet">
<metadata>
Created by potrace 1.10, written by Peter Selinger 2001-2011
</metadata>
<g transform="translate(0.000000,200.000000) scale(0.100000,-0.100000)"
fill="#000000" stroke="none">
<path d="M674 1271 c-48 -22 -83 -66 -91 -116 -4 -25 -11 -35 -23 -35 -51 0
-66 -30 -27 -52 16 -9 78 -13 227 -13 149 0 211 4 228 13 32 19 27 40 -12 47
-29 6 -34 12 -39 41 -17 106 -152 165 -263 115z m132 -21 c27 -11 92 -60 78
-60 -4 0 0 -8 9 -18 10 -10 14 -22 10 -25 -3 -4 1 -13 10 -20 11 -7 15 -20 11
-34 -7 -25 -46 -32 -174 -29 -148 4 -153 5 -147 20 3 8 1 17 -6 20 -8 3 -6 10
7 20 10 8 15 19 12 24 -3 5 1 15 9 22 8 7 15 18 15 24 0 20 79 64 117 65 12 1
34 -4 49 -9z"/>
<path d="M1742 1151 c-21 -13 -10 -46 16 -49 27 -4 40 22 22 43 -14 17 -20 18
-38 6z"/>
<path d="M1163 1135 c-18 -8 -42 -29 -53 -47 -53 -88 10 -198 114 -198 51 0
87 35 96 93 l7 47 -58 0 c-52 0 -57 -2 -52 -20 4 -14 14 -20 35 -20 38 0 35
-27 -5 -50 -24 -13 -30 -13 -54 0 -55 31 -66 97 -23 140 21 21 70 26 99 10 14
-7 23 -5 36 10 17 19 17 20 -18 35 -45 18 -82 19 -124 0z"/>
<path d="M1820 1017 l0 -129 75 4 c60 3 79 8 96 25 25 25 28 68 6 90 -14 14
-14 18 0 39 18 28 11 69 -15 83 -9 5 -50 10 -89 13 l-73 4 0 -129z m134 68
c11 -29 -5 -45 -45 -45 -37 0 -39 2 -39 30 0 28 2 30 39 30 25 0 41 -5 45 -15z
m4 -117 c3 -27 2 -28 -42 -28 -45 0 -46 1 -46 31 0 29 1 30 43 27 38 -3 42 -6
45 -30z"/>
<path d="M2040 1020 l0 -130 25 0 25 0 0 130 0 130 -25 0 -25 0 0 -130z"/>
<path d="M1393 1065 c-56 -24 -65 -116 -15 -155 41 -33 139 -21 126 15 -5 11
-16 13 -45 9 -25 -4 -44 -2 -54 6 -27 22 -16 30 45 30 57 0 60 1 60 24 0 28
-36 72 -65 80 -11 3 -34 -1 -52 -9z m63 -42 c17 -17 16 -18 -20 -21 -45 -4
-54 2 -36 23 16 20 35 19 56 -2z"/>
<path d="M1602 1064 c-12 -8 -22 -10 -22 -5 0 6 -10 11 -22 11 -22 0 -23 -3
-23 -90 0 -87 1 -90 23 -90 20 0 22 5 22 58 0 68 9 85 41 80 22 -3 24 -8 27
-70 3 -65 4 -68 27 -68 24 0 25 2 25 69 0 51 -4 74 -17 89 -25 29 -55 35 -81
16z"/>
<path d="M2183 1072 c-60 -9 -85 -111 -38 -157 47 -48 135 -21 150 44 5 24
-15 101 -27 101 -2 0 -17 4 -33 8 -17 4 -40 6 -52 4z m51 -48 c19 -18 21 -65
4 -82 -19 -19 -45 -14 -62 10 -21 30 -20 44 4 68 24 24 34 25 54 4z"/>
<path d="M2360 1067 c-48 -24 -57 -122 -13 -154 24 -18 63 -16 85 4 15 13 18
14 18 1 0 -41 -46 -62 -97 -44 -19 6 -23 4 -23 -13 0 -27 12 -33 67 -34 38 0
50 4 70 27 21 24 23 37 23 122 l0 94 -26 0 c-14 0 -23 -4 -19 -10 9 -15 -7
-12 -29 5 -24 18 -24 18 -56 2z m78 -85 c-2 -31 -7 -38 -27 -40 -15 -3 -30 3
-38 14 -18 25 -16 41 7 64 17 17 24 18 41 10 16 -9 19 -19 17 -48z"/>
<path d="M1735 980 c0 -87 1 -90 23 -90 21 0 22 3 22 90 0 87 -1 90 -22 90
-22 0 -23 -3 -23 -90z"/>
<path d="M594 988 c8 -48 34 -91 77 -126 40 -32 39 -5 -2 39 -34 39 -49 70
-49 105 0 15 -6 24 -16 24 -14 0 -15 -7 -10 -42z"/>
<path d="M900 1006 c0 -37 -14 -67 -54 -115 -20 -24 -35 -46 -32 -48 11 -11
81 55 97 92 23 50 25 95 4 95 -9 0 -15 -9 -15 -24z"/>
<path d="M733 933 l27 -27 22 21 c23 24 18 44 -6 24 -11 -9 -20 -10 -35 -2
-34 18 -37 12 -8 -16z"/>
<path d="M680 944 c0 -12 25 -54 32 -54 4 0 8 -9 8 -20 0 -24 15 -27 24 -4 4
10 -7 27 -29 48 -19 19 -35 32 -35 30z"/>
<path d="M788 901 c-16 -16 -24 -41 -14 -41 15 0 35 14 30 21 -3 5 0 9 5 9 6
0 11 7 11 15 0 19 -11 18 -32 -4z"/>
<path d="M690 801 c0 -27 30 -59 62 -67 21 -4 33 0 52 20 15 14 26 34 26 46 0
18 -6 20 -70 20 -62 0 -70 -2 -70 -19z"/>
</g>
</svg>
